<svg xmlns="http://www.w3.org/2000/svg" version="1.1" xmlns:xlink="http://www.w3.org/1999/xlink" xmlns:svgjs="http://svgjs.dev/svgjs" width="2000" height="484" viewBox="0 0 2000 484"><g transform="matrix(1,0,0,1,-1.2121212121212466,-0.9192880784518707)"><svg viewBox="0 0 396 96" data-background-color="#ffffff" preserveAspectRatio="xMidYMid meet" height="484" width="2000" xmlns="http://www.w3.org/2000/svg" xmlns:xlink="http://www.w3.org/1999/xlink"><g id="tight-bounds" transform="matrix(1,0,0,1,0.2400000000000091,0.18233813126317955)"><svg viewBox="0 0 395.52 95.63532373747366" height="95.63532373747366" width="395.52"><g><svg viewBox="0 0 569.7893847101063 137.77303870582256" height="95.63532373747366" width="395.52"><g transform="matrix(1,0,0,1,174.26938471010635,30.23758214171258)"><svg viewBox="0 0 395.52000000000004 77.2978744223974" height="77.2978744223974" width="395.52000000000004"><g id="textblocktransform"><svg viewBox="0 0 395.52000000000004 77.2978744223974" height="77.2978744223974" width="395.52000000000004" id="textblock"><g><svg viewBox="0 0 395.52000000000004 77.2978744223974" height="77.2978744223974" width="395.52000000000004"><g transform="matrix(1,0,0,1,0,0)"><svg width="395.52000000000004" viewBox="2.1 -35.3 183.93 35.949999999999996" height="77.2978744223974" data-palette-color="#ffffff"><path d="M2.7-2.25L4.15-7.5Q5.7-6.7 8.1-5.9 10.5-5.1 12.65-5.1L12.65-5.1Q15.7-5.1 17.23-6.05 18.75-7 18.75-8.8L18.75-8.8Q18.75-10.5 16.73-11.83 14.7-13.15 12.25-14.4L12.25-14.4Q8.65-16.25 5.38-18.73 2.1-21.2 2.1-25.7L2.1-25.7Q2.1-29.55 5.15-32.18 8.2-34.8 13.8-34.8L13.8-34.8Q16.35-34.8 18.9-34 21.45-33.2 23.4-32.25L23.4-32.25 21.25-27.05Q19.7-27.8 17.9-28.48 16.1-29.15 13.9-29.15L13.9-29.15Q11.75-29.15 10.28-28.3 8.8-27.45 8.8-25.7L8.8-25.7Q8.8-23.85 10.58-22.63 12.35-21.4 14.85-20.15L14.85-20.15 15.2-19.95Q18.8-18.1 22.13-15.58 25.45-13.05 25.45-8.7L25.45-8.7Q25.45-4.65 22.18-2 18.9 0.65 12.75 0.65L12.75 0.65Q10.6 0.65 7.23-0.3 3.85-1.25 2.7-2.25L2.7-2.25ZM31.05-34.75L37.5-35.3 37.5-15.4 47.9-24.95 51.55-20.35 44.75-14.4 53.65 0 46.2 0 40.1-10.25 37.5-7.95 37.5 0 31.05 0 31.05-34.75ZM60.3-35L60.3-35Q61.85-35 62.92-33.95 64-32.9 64-31.35L64-31.35Q64-29.8 62.92-28.75 61.85-27.7 60.3-27.7L60.3-27.7Q58.8-27.7 57.75-28.75 56.7-29.8 56.7-31.35L56.7-31.35Q56.7-32.9 57.75-33.95 58.8-35 60.3-35ZM57.05-24.25L63.55-24.25 63.55 0 57.05 0 57.05-24.25ZM70.19-34.75L76.64-35.3 76.64 0 70.19 0 70.19-34.75ZM83.49-34.75L89.94-35.3 89.94 0 83.49 0 83.49-34.75ZM107.99-19.35L107.99-19.35Q105.24-19.35 103.69-17.28 102.14-15.2 102.14-12.1L102.14-12.1Q102.14-8.95 103.69-6.95 105.24-4.95 107.99-4.95L107.99-4.95Q109.69-4.95 111.06-5.38 112.44-5.8 114.19-6.6L114.19-6.6 116.04-1.9Q114.34-0.6 111.91 0 109.49 0.6 107.94 0.6L107.94 0.6Q102.04 0.6 98.74-2.85 95.44-6.3 95.44-12.1L95.44-12.1Q95.44-17.9 98.74-21.4 102.04-24.9 107.94-24.9L107.94-24.9Q109.49-24.9 111.86-24.25 114.24-23.6 116.04-22.35L116.04-22.35 114.19-17.7Q112.44-18.5 111.06-18.93 109.69-19.35 107.99-19.35ZM131.94 0.6L131.94 0.6Q126.19 0.6 122.96-2.88 119.73-6.35 119.73-12.2L119.73-12.2Q119.73-18 123.11-21.45 126.48-24.9 132.34-24.9L132.34-24.9Q138.38-24.9 141.71-21.33 145.03-17.75 145.03-11.95L145.03-11.95Q145.03-6.15 141.44-2.78 137.84 0.6 131.94 0.6ZM138.34-11.95L138.34-11.95Q138.34-15.4 136.81-17.38 135.28-19.35 132.49-19.35L132.49-19.35Q129.63-19.35 128.03-17.6 126.44-15.85 126.44-12.25L126.44-12.25Q126.44-8.65 127.81-6.8 129.19-4.95 132.03-4.95L132.03-4.95Q134.84-4.95 136.59-6.63 138.34-8.3 138.34-11.95ZM153.48-35L153.48-35Q155.03-35 156.11-33.95 157.18-32.9 157.18-31.35L157.18-31.35Q157.18-29.8 156.11-28.75 155.03-27.7 153.48-27.7L153.48-27.7Q151.98-27.7 150.93-28.75 149.88-29.8 149.88-31.35L149.88-31.35Q149.88-32.9 150.93-33.95 151.98-35 153.48-35ZM150.23-24.25L156.73-24.25 156.73 0 150.23 0 150.23-24.25ZM166.43-24.25L168.38-21.65Q170.03-23.3 172.5-24.25 174.98-25.2 176.93-25.2L176.93-25.2Q181.88-25.2 183.96-22.3 186.03-19.4 186.03-15.2L186.03-15.2 186.03 0 179.53 0 179.53-14.9Q179.53-17.2 178.43-18.43 177.33-19.65 175.23-19.65L175.23-19.65Q173.83-19.65 172.31-18.93 170.78-18.2 169.53-17.25L169.53-17.25 169.53 0 163.03 0 163.03-24.25 166.43-24.25Z" opacity="1" transform="matrix(1,0,0,1,0,0)" fill="#ffffff" class="wordmark-text-0" data-fill-palette-color="primary" id="text-0"></path></svg></g></svg></g></svg></g></svg></g><g><svg viewBox="0 0 137.77303870582256 137.77303870582256" height="137.77303870582256" width="137.77303870582256"><g><svg></svg></g><g id="icon-0"><svg viewBox="0 0 137.77303870582256 137.77303870582256" height="137.77303870582256" width="137.77303870582256"><g><path d="M0 68.887c0-38.045 30.842-68.887 68.887-68.887 38.045 0 68.887 30.842 68.886 68.887 0 38.045-30.842 68.887-68.886 68.886-38.045 0-68.887-30.842-68.887-68.886zM68.887 130.802c34.195 0 61.916-27.721 61.915-61.915 0-34.195-27.721-61.916-61.915-61.916-34.195 0-61.916 27.721-61.916 61.916 0 34.195 27.721 61.916 61.916 61.915z" data-fill-palette-color="accent" fill="#00ccff" stroke="transparent"></path></g><g transform="matrix(1,0,0,1,30.399983223982552,41.154189274661874)"><svg viewBox="0 0 76.97307225785745 55.46466015649881" height="55.46466015649881" width="76.97307225785745"><g><svg xmlns="http://www.w3.org/2000/svg" data-name="Layer 2" viewBox="2.9922498999199223 16.422912653555912 90.00775010008007 64.85708734644409" x="0" y="0" height="55.46466015649881" width="76.97307225785745" class="icon-cg-0" data-fill-palette-color="accent" id="cg-0"><path d="M92 24.39H71.11a4.52 4.52 0 0 0-4.33-3.27 4.47 4.47 0 0 0-2.53 0.77 5.81 5.81 0 0 0-5.14-5.44 5.62 5.62 0 0 0-4.37 1.47 5.75 5.75 0 0 0-0.86 1 5.7 5.7 0 0 0-9.39 0 5.3 5.3 0 0 0-0.85-1 5.67 5.67 0 0 0-4.38-1.47 5.84 5.84 0 0 0-5.15 5.87v2.07H13.44a0.87 0.87 0 0 0-0.32 0.06L3.68 27.6a1 1 0 0 0 0 1.9l9.44 3.14a1.13 1.13 0 0 0 0.32 0h12a7.84 7.84 0 0 0-0.71 3.24v5A20.88 20.88 0 0 0 36.54 59.63 2.66 2.66 0 0 1 38.1 62v0.14a2.1 2.1 0 0 0-1 1.79v9.5a2.07 2.07 0 0 0 1 1.78v5a1 1 0 0 0 2 0V75.53h9a7.61 7.61 0 0 0 6.91 0h8.84v4.75a1 1 0 0 0 2 0v-5A2.08 2.08 0 0 0 68 73.45V64a2.07 2.07 0 0 0-1.18-1.87v-0.79a2.66 2.66 0 0 1 0.48-1.57 20.61 20.61 0 0 0 4-12.2V32.69H92a1 1 0 0 0 1-1v-6.3A1 1 0 0 0 92 24.39ZM7.16 28.55l6.44-2.16H34.15v4.3H13.6Zm32 45a0.09 0.09 0 0 1-0.09-0.08V64a0.09 0.09 0 0 1 0.09-0.09h7.42a7.67 7.67 0 0 0 0 9.67Zm7.72-4.85a5.69 5.69 0 1 1 5.68 5.68A5.69 5.69 0 0 1 46.88 68.68ZM66 63.86A0.08 0.08 0 0 1 66 64v9.5a0.08 0.08 0 0 1-0.08 0.08H58.51a7.66 7.66 0 0 0 0-9.67Zm-0.24-5.32a4.63 4.63 0 0 0-0.86 2.75v0.57H56.11a7.68 7.68 0 0 0-7.1 0H40.09a4.63 4.63 0 0 0-2.69-4A18.9 18.9 0 0 1 26.73 40.88v-5a5.65 5.65 0 0 1 1-3.24h6.39v7a1 1 0 0 0 2 0v-8h0V25.39a1.18 1.18 0 0 0 0-0.2V22.32a3.83 3.83 0 0 1 3.34-3.88 3.69 3.69 0 0 1 4 3.68 1 1 0 0 0 2 0 3.7 3.7 0 0 1 7.39 0 1 1 0 0 0 2 0 3.69 3.69 0 0 1 1.21-2.73 3.59 3.59 0 0 1 2.84-0.94 3.82 3.82 0 0 1 3.34 3.87v3.32a1 1 0 1 0 2 0v-0.18a2.51 2.51 0 0 1 2.5-2.34 2.55 2.55 0 0 1 2.52 2.41v22A18.61 18.61 0 0 1 65.72 58.54ZM91 30.69H71.3v-4.3H91Z" fill="#00ccff" data-fill-palette-color="accent"></path></svg></g></svg></g></svg></g></svg></g></svg></g><defs></defs></svg><rect width="395.52" height="95.63532373747366" fill="none" stroke="none" visibility="hidden"></rect></g></svg></g></svg>